<?xml version="1.0" encoding="UTF-8"?>
<svg version="1.1" xmlns="http://www.w3.org/2000/svg" width="549" height="149">
<path d="M0 0 C181.17 0 362.34 0 549 0 C549 49.17 549 98.34 549 149 C367.83 149 186.66 149 0 149 C0 99.83 0 50.66 0 0 Z " fill="#010000" transform="translate(0,0)"/>
<path d="M0 0 C14.78726409 5.85813768 29.41336268 11.977423 43.5546875 19.2734375 C46.98767912 20.99382559 50.45924493 22.51609799 54 24 C55.60584098 24.70452932 57.21027839 25.41227795 58.8125 26.125 C59.56144531 26.45757812 60.31039062 26.79015625 61.08203125 27.1328125 C62.40026509 27.72883676 63.70601843 28.35300922 65 29 C65 53.09 65 77.18 65 102 C52.34319684 89.34319684 51.98530647 78.0969522 51.9375 61.10546875 C51.958125 59.09066406 51.97875 57.07585937 52 55 C51.67 62.92 51.34 70.84 51 79 C50.34 79 49.68 79 49 79 C37.10903178 65.15435207 36.43620364 51.70058325 37 34 C36.67 41.26 36.34 48.52 36 56 C35.34 56 34.68 56 34 56 C33.401875 54.865625 32.80375 53.73125 32.1875 52.5625 C29.2061521 47.19439887 25.86789261 42.08248593 22.51367188 36.94360352 C18.35293531 30.56606973 14.27981131 24.13636082 10.23608398 17.68408203 C7.29252495 13.00024488 4.25977545 8.39771839 1.11254883 3.84765625 C0 2 0 2 0 0 Z " fill="#F30000" transform="translate(34,20)"/>
<path d="M0 0 C-1.84540046 3.96159337 -4.18084514 7.61753776 -6.5 11.3125 C-6.94359863 12.02108154 -7.38719727 12.72966309 -7.84423828 13.4597168 C-11.16716998 18.73990338 -14.59510092 23.94121837 -18.08984375 29.10888672 C-20.54073257 32.75160666 -22.91022476 36.43408754 -25.2265625 40.1640625 C-26.04278076 41.47636841 -26.04278076 41.47636841 -26.87548828 42.81518555 C-27.94521685 44.5419596 -29.00886493 46.27251768 -30.06591797 48.00708008 C-30.54947754 48.78720459 -31.03303711 49.5673291 -31.53125 50.37109375 C-32.17416992 51.4218811 -32.17416992 51.4218811 -32.83007812 52.49389648 C-33.21615234 52.99091064 -33.60222656 53.4879248 -34 54 C-34.66 54 -35.32 54 -36 54 C-36.33 46.74 -36.66 39.48 -37 32 C-38.31676915 34.6335383 -38.14367721 36.65491945 -38.17578125 39.6015625 C-38.19962891 40.73207031 -38.22347656 41.86257812 -38.24804688 43.02734375 C-38.29059259 45.40216825 -38.32206993 47.77722009 -38.34179688 50.15234375 C-38.51061499 57.08566461 -39.14359126 62.17638565 -43 68 C-43.62261719 68.9796875 -44.24523437 69.959375 -44.88671875 70.96875 C-45.48097656 71.8040625 -46.07523438 72.639375 -46.6875 73.5 C-47.28949219 74.3559375 -47.89148438 75.211875 -48.51171875 76.09375 C-49.00285156 76.7228125 -49.49398437 77.351875 -50 78 C-50.33 78 -50.66 78 -51 78 C-51 69.75 -51 61.5 -51 53 C-51.66 53 -52.32 53 -53 53 C-53.0093457 53.86689453 -53.01869141 54.73378906 -53.02832031 55.62695312 C-53.07262577 58.87775741 -53.13436953 62.12765627 -53.20751953 65.37792969 C-53.23555071 66.77819961 -53.25685316 68.17862251 -53.27099609 69.57910156 C-53.42951896 84.3957058 -53.42951896 84.3957058 -58 91 C-58.93392578 92.46953125 -58.93392578 92.46953125 -59.88671875 93.96875 C-60.77810547 95.22171875 -60.77810547 95.22171875 -61.6875 96.5 C-62.28949219 97.3559375 -62.89148438 98.211875 -63.51171875 99.09375 C-64.00285156 99.7228125 -64.49398437 100.351875 -65 101 C-65.33 101 -65.66 101 -66 101 C-66.13901003 91.68159989 -66.24562484 82.36355652 -66.31087303 73.04434586 C-66.34218905 68.71701695 -66.384665 64.39039725 -66.45263672 60.06347656 C-66.51782239 55.88778466 -66.55370401 51.71277488 -66.56926346 47.53661346 C-66.5803515 45.9433086 -66.60200486 44.35004116 -66.63438034 42.75702667 C-66.6779388 40.52502259 -66.6839352 38.29583717 -66.68115234 36.06347656 C-66.70113785 34.15819183 -66.70113785 34.15819183 -66.7215271 32.2144165 C-66 29 -66 29 -63.14498901 26.65179443 C-60.08003325 25.04203464 -57.02787061 23.52051782 -53.859375 22.125 C-52.70566406 21.61453125 -51.55195312 21.1040625 -50.36328125 20.578125 C-49.17089844 20.05734375 -47.97851562 19.5365625 -46.75 19 C-45.57308594 18.47921875 -44.39617187 17.9584375 -43.18359375 17.421875 C-38.08317831 15.1751959 -32.97860836 12.96496506 -27.79296875 10.921875 C-21.7132941 8.52621287 -15.80761463 5.76012628 -9.88476562 3.00390625 C-8.61342773 2.42189453 -8.61342773 2.42189453 -7.31640625 1.828125 C-6.55787354 1.4765332 -5.79934082 1.12494141 -5.01782227 0.76269531 C-3 0 -3 0 0 0 Z " fill="#F5F5F5" transform="translate(169,21)"/>
<path d="M0 0 C2.84625 -0.061875 5.6925 -0.12375 8.625 -0.1875 C9.51010254 -0.21481201 10.39520508 -0.24212402 11.30712891 -0.27026367 C17.53865682 -0.33548223 21.67366568 0.85732365 26.375 5.1875 C28.49817951 8.86223377 29.02932706 11.84894335 28 16 C25.4375 18.75 25.4375 18.75 23 21 C22.87235435 24.82936957 26.09460691 28.80385675 28 32 C22.83405051 32.61290926 22.83405051 32.61290926 20 32 C17.76385711 29.97631724 16.28125697 27.72267106 15 25 C15 24.34 15 23.68 15 23 C12.36 23 9.72 23 7 23 C7 25.97 7 28.94 7 32 C4.69 32 2.38 32 0 32 C0 21.44 0 10.88 0 0 Z " fill="#F70000" transform="translate(449,46)"/>
<path d="M0 0 C7 0 7 0 9.07983398 1.52880859 C9.62969971 2.22828613 10.17956543 2.92776367 10.74609375 3.6484375 C11.35517578 4.40640625 11.96425781 5.164375 12.59179688 5.9453125 C13.20087891 6.74710938 13.80996094 7.54890625 14.4375 8.375 C15.07365234 9.1690625 15.70980469 9.963125 16.36523438 10.78125 C21 16.65560385 21 16.65560385 21 19 C21.66 19 22.32 19 23 19 C23 12.73 23 6.46 23 0 C25.31 0 27.62 0 30 0 C30 10.56 30 21.12 30 32 C23 32 23 32 20.5234375 29.8046875 C19.81445312 28.83789062 19.10546875 27.87109375 18.375 26.875 C17.66085937 25.92367187 16.94671875 24.97234375 16.2109375 23.9921875 C15.48132813 23.00476563 14.75171875 22.01734375 14 21 C12.35 19.02 10.7 17.04 9 15 C8.67 20.61 8.34 26.22 8 32 C5.36 32 2.72 32 0 32 C0 21.44 0 10.88 0 0 Z " fill="#F20000" transform="translate(487,46)"/>
<path d="M0 0 C2.97 0 5.94 0 9 0 C10.85856907 4.07189366 12.70976667 8.14703215 14.55419922 12.2253418 C15.18271447 13.61232601 15.81323667 14.99840259 16.44580078 16.38354492 C17.35457784 18.37443721 18.25609245 20.36847972 19.15625 22.36328125 C19.70087891 23.56251221 20.24550781 24.76174316 20.80664062 25.99731445 C22 29 22 29 22 32 C19.69 32 17.38 32 15 32 C14.01 30.02 13.02 28.04 12 26 C7.05 26 2.1 26 -3 26 C-3.99 27.98 -4.98 29.96 -6 32 C-8.31 32 -10.62 32 -13 32 C-12.35057577 27.86454725 -10.99296423 24.41595212 -9.27734375 20.60546875 C-8.73916016 19.40341797 -8.20097656 18.20136719 -7.64648438 16.96289062 C-7.07693432 15.70437666 -6.50727145 14.44591375 -5.9375 13.1875 C-5.36346104 11.90971681 -4.78988839 10.63172403 -4.21679688 9.35351562 C-2.8157713 6.23358473 -1.41002202 3.11587282 0 0 Z " fill="#F30000" transform="translate(344,46)"/>
<path d="M0 0 C8.25 0 16.5 0 25 0 C25 1.98 25 3.96 25 6 C19.39 6 13.78 6 8 6 C8 8.31 8 10.62 8 13 C12.95 13 17.9 13 23 13 C23 14.98 23 16.96 23 19 C18.05 19 13.1 19 8 19 C8 21.31 8 23.62 8 26 C13.61 26 19.22 26 25 26 C25 27.98 25 29.96 25 32 C16.75 32 8.5 32 0 32 C0 21.44 0 10.88 0 0 Z " fill="#F20000" transform="translate(413,46)"/>
<path d="M0 0 C2.31 0 4.62 0 7 0 C7 4.29 7 8.58 7 13 C11.95 13 16.9 13 22 13 C22 8.71 22 4.42 22 0 C24.31 0 26.62 0 29 0 C29 10.56 29 21.12 29 32 C26.69 32 24.38 32 22 32 C22 27.71 22 23.42 22 19 C17.05 19 12.1 19 7 19 C7 23.29 7 27.58 7 32 C4.69 32 2.38 32 0 32 C0 21.44 0 10.88 0 0 Z " fill="#FA0000" transform="translate(219,46)"/>
<path d="M0 0 C7.92 0 15.84 0 24 0 C24 1.98 24 3.96 24 6 C18.39 6 12.78 6 7 6 C7 8.31 7 10.62 7 13 C11.95 13 16.9 13 22 13 C22 14.98 22 16.96 22 19 C17.05 19 12.1 19 7 19 C7 21.31 7 23.62 7 26 C12.94 26 18.88 26 25 26 C25 27.98 25 29.96 25 32 C16.75 32 8.5 32 0 32 C0 21.44 0 10.88 0 0 Z " fill="#F80000" transform="translate(261,46)"/>
<path d="M0 0 C2.64 0 5.28 0 8 0 C17 17.73786408 17 17.73786408 17 22 C17.66 22 18.32 22 19 22 C19.13921875 21.01773438 19.13921875 21.01773438 19.28125 20.015625 C20.23039464 16.03334423 21.83069319 12.47744813 23.5 8.75 C23.82097656 8.0178125 24.14195312 7.285625 24.47265625 6.53125 C26.85781769 1.14218231 26.85781769 1.14218231 28 0 C30.33297433 -0.04092937 32.66705225 -0.04241723 35 0 C33.65533605 4.18766773 32.12108035 8.22722986 30.3984375 12.2734375 C29.90859375 13.42714844 29.41875 14.58085938 28.9140625 15.76953125 C28.40617187 16.95933594 27.89828125 18.14914063 27.375 19.375 C26.859375 20.58800781 26.34375 21.80101563 25.8125 23.05078125 C24.54373026 26.03473971 23.27283216 29.01777268 22 32 C19.36 32 16.72 32 14 32 C12.41276083 28.54344659 10.83094832 25.08443467 9.25 21.625 C8.8065625 20.65949219 8.363125 19.69398437 7.90625 18.69921875 C5.09127994 12.53112259 2.45335198 6.32076469 0 0 Z " fill="#F30000" transform="translate(370,46)"/>
<path d="M0 0 C2.8028966 1.03861379 4.57973607 2.19887336 7 4 C5.68 5.65 4.36 7.3 3 9 C2.505 8.690625 2.01 8.38125 1.5 8.0625 C-2.64002103 6.30299106 -7.02014105 5.37478139 -11.375 6.75 C-13.28677108 8.08208558 -13.28677108 8.08208558 -15 11 C-15.31600189 13.14790929 -15.31600189 13.14790929 -15.25 15.4375 C-15.25515625 16.19933594 -15.2603125 16.96117188 -15.265625 17.74609375 C-14.88261002 20.9960885 -13.93591533 23.24406839 -11.375 25.3125 C-6.99626593 26.58002828 -2.6408651 25.69736767 1.5 23.9375 C1.995 23.628125 2.49 23.31875 3 23 C4.32 24.65 5.64 26.3 7 28 C0.70763367 32.68269122 -5.30083986 33.00079173 -13 32 C-15.65651443 30.97053788 -16.85327096 29.97725043 -19 28 C-19.5775 27.505 -20.155 27.01 -20.75 26.5 C-24.15602771 22.41276675 -24.4303304 18.63331145 -24.31640625 13.46875 C-23.6851283 8.54322326 -20.96946378 5.85405143 -17.375 2.6875 C-12.03953177 -1.10349059 -6.37236816 -0.58274626 0 0 Z " fill="#F20000" transform="translate(318,46)"/>
<path d="M0 0 C9.24 0 18.48 0 28 0 C28 1.98 28 3.96 28 6 C24.7 6 21.4 6 18 6 C18 14.58 18 23.16 18 32 C15.69 32 13.38 32 11 32 C11 23.42 11 14.84 11 6 C7.37 6 3.74 6 0 6 C0 4.02 0 2.04 0 0 Z " fill="#F80000" transform="translate(182,46)"/>
<path d="M0 0 C11.35193133 -0.49356223 11.35193133 -0.49356223 14.359375 1.796875 C16.74088203 4.99489872 16.5548473 7.1160689 16 11 C14.359375 13.203125 14.359375 13.203125 12 15 C7.93404512 15.52667809 4.11858117 15.17906875 0 15 C0 10.05 0 5.1 0 0 Z " fill="#E4E4E4" transform="translate(346,95)"/>
<path d="M0 0 C3 1.5625 3 1.5625 5 4 C5.625 7.5 5.625 7.5 5 11 C2.88564247 13.57687323 1.32896485 14.74473348 -1.97265625 15.37890625 C-5.36510409 15.57547799 -7.61480134 15.24074916 -10.5 13.4375 C-12.58392818 10.05111671 -12.55802097 7.90614682 -12 4 C-9.13164868 -0.6610709 -5.08417223 -0.97656378 0 0 Z " fill="#E8E8E8" transform="translate(387,95)"/>
<path d="M0 0 C1.65 0 3.3 0 5 0 C5.33 3.63 5.66 7.26 6 11 C6.99 11 7.98 11 9 11 C9.33 7.37 9.66 3.74 10 0 C11.65 0 13.3 0 15 0 C15.6168993 9.9389332 15.6168993 9.9389332 13.4375 13.6875 C10.03362851 15.52035388 7.80853299 15.54407614 4 15 C1.5625 13.6875 1.5625 13.6875 0 11 C-0.32396453 7.30892873 -0.22932784 3.69472631 0 0 Z " fill="#D7D7D7" transform="translate(327,95)"/>
<path d="M0 0 C9.625 -0.25 9.625 -0.25 13 2 C13.375 5.5 13.375 5.5 13 9 C8.61501596 11.92332269 5.2225328 11.1356502 0 11 C0 7.37 0 3.74 0 0 Z " fill="#0A0000" transform="translate(456,52)"/>
<path d="M0 0 C1.8871875 0.061875 1.8871875 0.061875 3.8125 0.125 C4.1425 1.445 4.4725 2.765 4.8125 4.125 C2.5025 4.125 0.1925 4.125 -2.1875 4.125 C-1.61 4.41375 -1.0325 4.7025 -0.4375 5 C1.64583333 6.04166667 3.72916667 7.08333333 5.8125 8.125 C6 10.5 6 10.5 5.8125 13.125 C1.75891576 15.82738949 -0.37060104 15.35437614 -5.1875 15.125 C-5.8475 14.795 -6.5075 14.465 -7.1875 14.125 C-7.1875 13.135 -7.1875 12.145 -7.1875 11.125 C-4.5475 11.125 -1.9075 11.125 0.8125 11.125 C-1.8275 9.805 -4.4675 8.485 -7.1875 7.125 C-7.375 4.75 -7.375 4.75 -7.1875 2.125 C-4.09861478 0.06574319 -3.47814073 -0.1140374 0 0 Z " fill="#E4E4E4" transform="translate(402.1875,94.875)"/>
<path d="M0 0 C1.8871875 0.061875 1.8871875 0.061875 3.8125 0.125 C4.1425 1.445 4.4725 2.765 4.8125 4.125 C2.5025 4.125 0.1925 4.125 -2.1875 4.125 C-1.61 4.41375 -1.0325 4.7025 -0.4375 5 C1.64583333 6.04166667 3.72916667 7.08333333 5.8125 8.125 C6 10.5 6 10.5 5.8125 13.125 C1.75891576 15.82738949 -0.37060104 15.35437614 -5.1875 15.125 C-5.8475 14.795 -6.5075 14.465 -7.1875 14.125 C-7.1875 13.135 -7.1875 12.145 -7.1875 11.125 C-4.5475 11.125 -1.9075 11.125 0.8125 11.125 C-1.8275 9.805 -4.4675 8.485 -7.1875 7.125 C-7.375 4.75 -7.375 4.75 -7.1875 2.125 C-4.09861478 0.06574319 -3.47814073 -0.1140374 0 0 Z " fill="#E4E4E4" transform="translate(302.1875,94.875)"/>
<path d="M0 0 C4.62 0 9.24 0 14 0 C14 0.99 14 1.98 14 3 C12.35 3 10.7 3 9 3 C9 6.96 9 10.92 9 15 C7.68 15 6.36 15 5 15 C5 11.04 5 7.08 5 3 C3.35 3 1.7 3 0 3 C0 2.01 0 1.02 0 0 Z " fill="#EFEFEF" transform="translate(310,95)"/>
<path d="M0 0 C1.65 0 3.3 0 5 0 C5 4.95 5 9.9 5 15 C3.35 15 1.7 15 0 15 C0 10.05 0 5.1 0 0 Z " fill="#D1D1D1" transform="translate(366,95)"/>
<path d="M0 0 C5.56818182 0.56818182 5.56818182 0.56818182 7 2 C7.25 4.4375 7.25 4.4375 7 7 C4 9 4 9 1.3125 8.625 C0.549375 8.41875 -0.21375 8.2125 -1 8 C-1.625 5.125 -1.625 5.125 -2 2 C-1.34 1.34 -0.68 0.68 0 0 Z " fill="#131313" transform="translate(381,98)"/>
<path d="M0 0 C3.28220895 1.64110448 3.74570789 4.69322988 5 8 C5 8.99 5 9.98 5 11 C2.03 11 -0.94 11 -4 11 C-3.39301257 6.87248551 -1.96189209 3.6678852 0 0 Z " fill="#130000" transform="translate(348,54)"/>
<path d="M0 0 C2.375 -0.125 2.375 -0.125 5 0 C7 2 7 2 7.25 4.5 C7 7 7 7 5 9 C2.375 9.125 2.375 9.125 0 9 C0 6.03 0 3.06 0 0 Z " fill="#060606" transform="translate(351,98)"/>
</svg>
