<?xml version="1.0" encoding="UTF-8"?>
<svg version="1.1" xmlns="http://www.w3.org/2000/svg" width="500" height="500">
<path d="M0 0 C165 0 330 0 500 0 C500 165 500 330 500 500 C335 500 170 500 0 500 C0 335 0 170 0 0 Z " fill="#000000" transform="translate(0,0)"/>
<path d="M0 0 C4.95927178 1.54016168 9.59993706 3.52970896 14.31640625 5.67578125 C15.11646591 6.03693527 15.91652557 6.39808929 16.74082947 6.77018738 C19.34925998 7.9483084 21.95585748 9.13042898 24.5625 10.3125 C26.38657156 11.13704445 28.21079175 11.96126015 30.03515625 12.78515625 C33.68161925 14.43207512 37.32756024 16.08014096 40.97314453 17.72900391 C47.47512852 20.66826531 53.98672664 23.58584308 60.5 26.5 C68.68470048 30.16496772 76.86574035 33.83792778 85.04296875 37.51953125 C85.92135406 37.91498138 86.79973938 38.31043152 87.70474243 38.71786499 C92.02742408 40.66410027 96.34983508 42.61093381 100.671875 44.55859375 C102.28515165 45.28516647 103.89843271 46.01172938 105.51171875 46.73828125 C106.54657661 47.20497978 106.54657661 47.20497978 107.6023407 47.68110657 C116.05404961 51.48637094 124.52969888 55.23542172 133 59 C133 107.84 133 156.68 133 207 C130.42417841 204.42417841 128.79432409 202.29311978 126.890625 199.24609375 C126.30023438 198.30830078 125.70984375 197.37050781 125.1015625 196.40429688 C124.49054688 195.42525391 123.87953125 194.44621094 123.25 193.4375 C122.0492159 191.51806481 120.84609824 189.60008746 119.640625 187.68359375 C119.10985352 186.83337646 118.57908203 185.98315918 118.03222656 185.10717773 C116.14731398 182.09216779 116.14731398 182.09216779 114.24052429 179.8991394 C108.5664372 172.80859309 108.04253128 167.2388489 108.23828125 158.328125 C108.23399591 156.37059307 108.22969008 154.41306093 108.22417736 152.45553207 C108.2247596 149.74101107 108.25652847 147.02722712 108.28894043 144.31292725 C108.34338299 139.54581777 108.36874925 134.7788224 108.36308289 130.01141357 C108.36321259 127.48044261 108.38338811 124.94937272 108.42610168 122.41876221 C108.4289769 121.27026794 108.43185211 120.12177368 108.43481445 118.93847656 C108.44704544 117.93383362 108.45927643 116.92919067 108.47187805 115.894104 C108.07768774 112.22045311 108.07768774 112.22045311 104 107 C103.67 124.49 103.34 141.98 103 160 C100.15995327 157.15995327 98.45522975 155.42242717 96.51953125 152.1640625 C95.8553418 151.05998047 95.8553418 151.05998047 95.17773438 149.93359375 C94.72720703 149.17175781 94.27667969 148.40992188 93.8125 147.625 C92.92516936 146.13683112 92.03577333 144.64989219 91.14453125 143.1640625 C90.66991455 142.34196289 90.19529785 141.51986328 89.70629883 140.67285156 C88.01527843 137.89395509 88.01527843 137.89395509 85.65893555 135.22558594 C76.54857312 123.65201478 77.89881232 111.16379874 78.1875 97 C78.2340097 93.37513503 78.26737276 89.75112639 78.27839661 86.12597656 C78.28789705 83.8842299 78.31899336 81.64243921 78.37480164 79.40136719 C78.38879753 77.87817871 78.38879753 77.87817871 78.40307617 76.32421875 C78.43047127 74.9952356 78.43047127 74.9952356 78.4584198 73.6394043 C78.04200397 70.18737603 78.04200397 70.18737603 74 65 C73.67 80.84 73.34 96.68 73 113 C70.55625689 110.55625689 69.00763567 108.64091782 67.20703125 105.7734375 C66.39782227 104.49243164 66.39782227 104.49243164 65.57226562 103.18554688 C64.70118164 101.79432617 64.70118164 101.79432617 63.8125 100.375 C62.54858428 98.37213881 61.28424513 96.36954479 60.01953125 94.3671875 C59.36033691 93.32143555 58.70114258 92.27568359 58.02197266 91.19824219 C54.70440681 85.95070384 51.35124395 80.72606859 48 75.5 C42.98730893 67.67469572 37.9856193 59.8425792 33 52 C27.9085986 43.99180984 22.80308432 35.99276501 17.6875 28 C17.01259521 26.94546631 16.33769043 25.89093262 15.64233398 24.80444336 C12.77467686 20.32583039 9.90498804 15.8485954 7.0234375 11.37890625 C6.38595581 10.38987305 6.38595581 10.38987305 5.7355957 9.38085938 C4.65947924 7.71282287 3.58177133 6.04581335 2.50390625 4.37890625 C1 2 1 2 0 0 Z " fill="#FA0000" transform="translate(113,146)"/>
<path d="M0 0 C0.99 0.495 0.99 0.495 2 1 C1.61368408 1.59200195 1.22736816 2.18400391 0.8293457 2.79394531 C-5.9547717 13.19098335 -12.7371595 23.58910586 -19.5 34 C-24.158802 41.17180995 -28.82679865 48.3375647 -33.5 55.5 C-38.21409745 62.72543011 -42.9236723 69.95375425 -47.625 77.1875 C-48.40798462 78.39128296 -48.40798462 78.39128296 -49.20678711 79.61938477 C-51.99858623 83.91309839 -54.78291264 88.21147184 -57.55859375 92.515625 C-58.14495605 93.4228833 -58.73131836 94.3301416 -59.33544922 95.26489258 C-60.45518005 96.99767367 -61.57282403 98.73180578 -62.68798828 100.4675293 C-63.44764893 101.64182495 -63.44764893 101.64182495 -64.22265625 102.83984375 C-64.66359619 103.52425537 -65.10453613 104.20866699 -65.55883789 104.91381836 C-67.25151012 107.36407825 -69.13961317 109.67451647 -71 112 C-71.33 96.16 -71.66 80.32 -72 64 C-76.89989507 70.04839289 -76.89989507 70.04839289 -77.453125 76.3425293 C-77.43080811 77.3385466 -77.40849121 78.3345639 -77.38549805 79.36076355 C-77.31842651 80.95142387 -77.31842651 80.95142387 -77.25 82.57421875 C-77.21769049 84.8756191 -77.1878246 87.1770548 -77.16015625 89.47851562 C-77.09050066 93.06480406 -77.00151453 96.64723191 -76.86669922 100.23168945 C-76.27521639 117.45772888 -78.45784936 128.27315194 -89.33233643 141.85739136 C-92.03870976 145.33453086 -94.37694574 149.04143931 -96.75 152.75 C-98.13141035 154.86505026 -99.53820713 156.93849724 -101 159 C-101.33 159 -101.66 159 -102 159 C-102.33 141.84 -102.66 124.68 -103 107 C-107.06211869 112.6806076 -107.06211869 112.6806076 -107.37133789 118.64379883 C-107.35555191 119.72965775 -107.33976593 120.81551666 -107.32350159 121.9342804 C-107.27358315 123.67804207 -107.27358315 123.67804207 -107.22265625 125.45703125 C-107.2030187 127.95766697 -107.18551072 130.45832014 -107.16992188 132.95898438 C-107.12475543 136.87186354 -107.06327878 140.78222667 -106.96264648 144.6940918 C-106.58421014 160.92560817 -106.92499707 172.64265318 -117.64535522 185.36013794 C-119.5303456 187.64200863 -121.0881814 190.09577316 -122.6640625 192.59765625 C-123.64996644 194.08664999 -124.63688535 195.57497239 -125.625 197.0625 C-126.13933594 197.84431641 -126.65367187 198.62613281 -127.18359375 199.43164062 C-127.91642578 200.53475586 -127.91642578 200.53475586 -128.6640625 201.66015625 C-129.30529053 202.62900757 -129.30529053 202.62900757 -129.95947266 203.61743164 C-130.30284668 204.0736792 -130.6462207 204.52992676 -131 205 C-131.33 205 -131.66 205 -132 205 C-132 156.82 -132 108.64 -132 59 C-115.92355617 50.96177809 -115.92355617 50.96177809 -109.10546875 48.01171875 C-107.9378727 47.50090256 -107.9378727 47.50090256 -106.74668884 46.97976685 C-104.22843836 45.87891968 -101.70800523 44.7831735 -99.1875 43.6875 C-97.38704378 42.90165972 -95.58675432 42.11543729 -93.78662109 41.32885742 C-90.99338529 40.10851482 -88.19998818 38.88855187 -85.40594482 37.6700592 C-79.07633233 34.90963154 -72.75286306 32.13558066 -66.43359375 29.3515625 C-48.14804877 21.29851074 -29.84000858 13.30746168 -11.44580078 5.50512695 C-10.74488312 5.20681976 -10.04396545 4.90851257 -9.32180786 4.60116577 C-7.44056269 3.80059153 -5.5582116 3.00261747 -3.67578125 2.20483398 C-1.13091701 1.24906415 -1.13091701 1.24906415 0 0 Z " fill="#FCFCFC" transform="translate(385,147)"/>
<path d="M0 0 C0.33 16.5 0.66 33 1 50 C0.34 50 -0.32 50 -1 50 C-1.33 47.69 -1.66 45.38 -2 43 C-3.60726195 44.05838549 -3.60726195 44.05838549 -5 46 C-5.58218332 49.4223884 -5.58218332 49.4223884 -5.6875 53.1875 C-5.75324219 54.45980469 -5.81898438 55.73210937 -5.88671875 57.04296875 C-5.92410156 58.01878906 -5.96148437 58.99460937 -6 60 C-6.33 60 -6.66 60 -7 60 C-7.15261974 52.74116068 -7.25741247 45.48273777 -7.32958984 38.22265625 C-7.35969048 35.75505104 -7.4005811 33.2875522 -7.45263672 30.8203125 C-7.52574265 27.26535755 -7.55952543 23.71182169 -7.5859375 20.15625 C-7.61690521 19.06010376 -7.64787292 17.96395752 -7.67977905 16.83459473 C-7.68266311 10.21304511 -6.72666335 6.40527833 -2.38955688 1.32263184 C-1 0 -1 0 0 0 Z " fill="#0D0D0D" transform="translate(314,210)"/>
</svg>
